<?xml version="1.0" encoding="UTF-8"?>
<svg width="1200pt" height="1200pt" version="1.1" viewBox="0 0 1200 1200" xmlns="http://www.w3.org/2000/svg">
 <path d="m158.53 210.66h-15.562c-55.594-0.09375-100.69-45.188-100.78-100.78v-38.812c0-10.359 8.3906-18.75 18.75-18.75h179.72c4.9688 0 9.7031 1.9688 13.219 5.4844s5.5312 8.2969 5.5312 13.266v38.719c-0.09375 55.688-45.234 100.83-100.92 100.88zm-78.844-120.84v19.969c0.09375 34.922 28.359 63.188 63.281 63.281h15.469c34.875-0.09375 63.188-28.359 63.281-63.281v-19.969z"/>
 <path d="m338.16 210.66h-15.422c-55.594-0.09375-100.64-45.188-100.78-100.78v-38.812c0-10.359 8.4375-18.75 18.75-18.75h179.68c5.0156 0 9.75 1.9688 13.266 5.4844 3.5156 3.5156 5.4844 8.2969 5.4844 13.266v38.719c-0.046874 55.734-45.234 100.88-100.97 100.88zm-78.75-120.84v19.969c0.046875 34.922 28.359 63.188 63.281 63.281h15.422c34.875-0.09375 63.188-28.359 63.281-63.281v-19.969z"/>
 <path d="m517.97 210.66h-15.469c-55.594-0.09375-100.64-45.188-100.78-100.78v-38.812c0-10.359 8.4375-18.75 18.75-18.75h179.53c4.9688 0 9.75 1.9688 13.266 5.4844s5.4844 8.2969 5.4844 13.266v38.719c-0.046875 55.641-45.141 100.78-100.78 100.88zm-78.938-120.84v19.969c0.09375 34.922 28.406 63.188 63.281 63.281h15.656c34.922-0.09375 63.188-28.359 63.281-63.281v-19.969z"/>
 <path d="m697.6 210.66h-15.562c-55.594-0.09375-100.69-45.188-100.78-100.78v-38.812c0-10.359 8.3906-18.75 18.75-18.75h179.72c4.9688 0 9.7031 1.9688 13.219 5.4844 3.5156 3.5156 5.5312 8.2969 5.5312 13.266v38.719c-0.09375 55.688-45.234 100.83-100.88 100.88zm-78.844-120.84v19.969c0.09375 34.922 28.359 63.188 63.281 63.281h15.469-0.046875c34.922-0.09375 63.234-28.359 63.281-63.281v-19.969z"/>
 <path d="m877.22 210.66h-15.422 0.046875c-55.641-0.09375-100.69-45.188-100.78-100.78v-38.812c0-10.359 8.3906-18.75 18.75-18.75h179.68-0.046876c5.0156 0 9.75 1.9688 13.266 5.4844 3.5156 3.5156 5.4844 8.2969 5.4844 13.266v38.719c-0.046874 55.734-45.234 100.88-100.97 100.88zm-78.75-120.84v19.969c0.046875 34.922 28.359 63.188 63.281 63.281h15.422-0.046875c34.922-0.09375 63.234-28.359 63.281-63.281v-19.969z"/>
 <path d="m1057 210.66h-15.469c-55.594-0.09375-100.64-45.188-100.78-100.78v-38.812c0-10.359 8.4375-18.75 18.75-18.75h179.53c4.9688 0 9.75 1.9688 13.266 5.4844s5.4844 8.2969 5.4844 13.266v38.719c-0.046875 55.641-45.141 100.78-100.78 100.88zm-78.938-120.84v19.969c0.09375 34.922 28.406 63.188 63.281 63.281h15.656c34.922-0.09375 63.188-28.359 63.281-63.281v-19.969z"/>
 <path d="m1139.1 1147.7c-10.359 0-18.75-8.3906-18.75-18.75v-1019.2c0-10.312 8.3906-18.75 18.75-18.75s18.75 8.4375 18.75 18.75v1019.2c0 4.9688-1.9688 9.75-5.4844 13.266s-8.2969 5.4844-13.266 5.4844z"/>
 <path d="m1087.2 644.68c-3.75 0-7.4062-1.125-10.5-3.2344-10.641-7.1719-20.906-14.859-30.75-23.109-34.312-28.172-62.438-63.047-82.688-102.52-40.922-79.594-40.922-174.1 0-253.69 15.844-31.125 36.75-59.391 61.781-83.672 3.5625-3.6094 8.3906-5.625 13.453-5.625 5.0156 0 9.8438 2.0156 13.406 5.625 3.5156 3.6094 5.4375 8.4844 5.2969 13.547-0.09375 5.0156-2.25 9.8438-5.9062 13.266-22.125 21.422-40.547 46.359-54.562 73.828-35.531 68.953-35.531 150.84 0 219.79 17.953 34.922 42.844 65.766 73.219 90.703 8.8594 7.4062 18.094 14.344 27.703 20.812 6.8438 4.5938 9.8438 13.125 7.4531 21-2.4375 7.9219-9.75 13.266-18 13.266z"/>
 <path d="m1139.1 1147.7c-2.7188 0-5.3906-0.60938-7.875-1.7344-30.609-14.109-59.25-32.203-85.219-53.766-34.266-28.172-62.391-63.047-82.688-102.47-40.922-79.641-40.922-174.14 0-253.78 20.25-39.469 48.375-74.344 82.641-102.52 9.8438-8.25 20.109-15.938 30.797-23.109 17.297-11.625 35.484-21.797 54.422-30.469 4.5469-2.2969 9.7969-2.625 14.625-0.98437 4.7812 1.6875 8.6719 5.25 10.828 9.8438 2.1094 4.6406 2.2969 9.8906 0.42188 14.625-1.8281 4.7812-5.4844 8.5312-10.172 10.547v-0.046874c-17.109 7.9219-33.562 17.156-49.219 27.656-9.5625 6.4688-18.797 13.406-27.656 20.812v-0.046876c-30.375 24.938-55.312 55.781-73.266 90.703-35.484 69-35.484 150.84 0 219.79 17.953 34.922 42.891 65.812 73.266 90.75 23.391 19.406 49.219 35.719 76.875 48.375 7.9688 3.7031 12.328 12.422 10.453 21.047-1.8281 8.5781-9.4219 14.719-18.234 14.766z"/>
 <path d="m60.938 1147.7c-10.359 0-18.75-8.3906-18.75-18.75v-1041.5c0-10.359 8.3906-18.75 18.75-18.75s18.75 8.3906 18.75 18.75v1041.5c0 4.9688-1.9688 9.75-5.4844 13.266s-8.2969 5.4844-13.266 5.4844z"/>
 <path d="m112.78 644.68c-8.25 0-15.516-5.3438-17.953-13.266-2.4375-7.875 0.60938-16.406 7.4531-21 9.5625-6.4688 18.797-13.406 27.656-20.812 30.375-24.891 55.312-55.781 73.266-90.703h-0.046875c17.484-33.984 26.625-71.625 26.672-109.83-0.046875-38.203-9.1875-75.891-26.672-109.88-13.969-27.469-32.391-52.406-54.516-73.828-7.4531-7.2188-7.5938-19.125-0.375-26.578 7.2656-7.4062 19.125-7.5469 26.578-0.32812 25.078 24.281 45.984 52.594 61.875 83.672 20.109 39.328 30.609 82.828 30.609 126.94-0.046875 44.062-10.5 87.516-30.609 126.74-20.25 39.469-48.375 74.391-82.641 102.56-9.8438 8.2031-20.109 15.938-30.75 23.109-3.0938 2.1094-6.7969 3.1875-10.547 3.1875z"/>
 <path d="m60.938 1147.7c-8.8125 0-16.453-6.1406-18.328-14.719-1.9219-8.625 2.4844-17.391 10.453-21.094h0.046875c27.609-12.656 53.438-28.969 76.828-48.375h0.046875c30.328-24.938 55.266-55.828 73.219-90.75 17.438-33.984 26.578-71.672 26.578-109.88-0.046875-38.25-9.1406-75.891-26.578-109.92-17.953-34.922-42.891-65.766-73.266-90.656-8.8594-7.4062-18.094-14.391-27.703-20.812-15.609-10.5-32.109-19.734-49.219-27.609-4.6406-2.0156-8.3438-5.7656-10.172-10.547-1.8281-4.7344-1.6875-9.9844 0.46875-14.625 2.1094-4.5938 6.0469-8.1562 10.828-9.8438 4.7812-1.6406 10.078-1.3125 14.578 0.98438 18.938 8.6719 37.125 18.844 54.422 30.469 10.688 7.1719 20.953 14.859 30.797 23.109 34.312 28.172 62.484 63.047 82.781 102.52 20.109 39.281 30.609 82.734 30.656 126.84 0 44.156-10.5 87.656-30.656 126.94-20.297 39.422-48.422 74.297-82.734 102.47h0.046875c-25.969 21.562-54.609 39.609-85.219 53.719h-0.046875c-2.4375 1.125-5.1094 1.7344-7.8281 1.7812z"/>
 <path d="m676.31 433.97h-152.34c-10.312 0-18.75-8.3906-18.75-18.75v-75.375c0-10.359 8.4375-18.75 18.75-18.75h152.34c5.0156 0 9.75 1.9688 13.266 5.4844s5.4844 8.2969 5.4844 13.266v75.375c0.046875 4.9688-1.9219 9.75-5.4375 13.266s-8.2969 5.5312-13.312 5.4844zm-133.6-37.5h114.84v-37.875h-114.84z"/>
 <path d="m721.13 518.34h-242.26c-6.5625-0.046875-12.656-3.4688-16.078-9.1406-3.375-5.6719-3.5156-12.703-0.42188-18.516l45.188-84.375c3.2344-6.0469 9.5156-9.8438 16.406-9.8438h151.87c6.8906-0.046875 13.266 3.75 16.547 9.8438l45.141 84.375c3.0938 5.8125 2.9062 12.844-0.46875 18.516s-9.4688 9.0938-16.078 9.1406zm-210.94-37.5h179.58l-25.078-46.875h-129.37z"/>
 <path d="m721.13 875.26h-242.26c-10.312 0-18.75-8.3906-18.75-18.75v-356.9c0-10.359 8.4375-18.75 18.75-18.75h242.26c4.9688 0 9.7031 1.9688 13.219 5.4844s5.5312 8.25 5.5312 13.266v356.9c0 4.9688-2.0156 9.75-5.5312 13.266-3.5156 3.5156-8.25 5.4844-13.219 5.4844zm-223.45-37.5h204.71v-319.4h-204.74z"/>
 <path d="m600 745.97c-27.469 0-52.266-16.547-62.812-41.953-10.5-25.406-4.6875-54.656 14.766-74.062 19.406-19.453 48.656-25.266 74.062-14.766 25.406 10.547 41.953 35.344 41.953 62.812 0 37.547-30.422 67.969-67.969 67.969zm0-98.438c-12.328 0-23.438 7.4062-28.172 18.797-4.6875 11.391-2.1094 24.516 6.6094 33.234s21.844 11.297 33.234 6.6094c11.391-4.7344 18.797-15.844 18.797-28.172-0.046875-16.828-13.641-30.422-30.469-30.422z"/>
 <path d="m721.08 587.72h-242.21c-10.312 0-18.75-8.4375-18.75-18.75 0-10.359 8.4375-18.75 18.75-18.75h242.21c10.359 0 18.75 8.3906 18.75 18.75 0 10.312-8.3906 18.75-18.75 18.75z"/>
 <path d="m721.08 803.72h-242.21c-10.312 0-18.75-8.3906-18.75-18.75 0-10.312 8.4375-18.75 18.75-18.75h242.21c10.359 0 18.75 8.4375 18.75 18.75 0 10.359-8.3906 18.75-18.75 18.75z"/>
 <path d="m877.69 1003.1h-555.37c-10.312 0-18.75-8.3906-18.75-18.75v-128.26c0-10.312 8.4375-18.75 18.75-18.75h555.37c4.9688 0 9.7031 2.0156 13.219 5.5312s5.5312 8.25 5.5312 13.219v128.26c0 4.9688-2.0156 9.75-5.5312 13.266s-8.25 5.4844-13.219 5.4844zm-536.63-37.5h517.87v-90.75h-517.87z"/>
 <path d="m682.03 1147.7h-164.06c-10.359 0-18.75-8.3906-18.75-18.75v-144.56c0-10.359 8.3906-18.75 18.75-18.75s18.75 8.3906 18.75 18.75v125.76h126.56v-125.76c0-10.359 8.3906-18.75 18.75-18.75s18.75 8.3906 18.75 18.75v144.52c0 4.9688-1.9688 9.75-5.4844 13.266-3.5156 3.5625-8.2969 5.5312-13.266 5.5312z"/>
</svg>
